{
	"patcher" : 	{
		"fileversion" : 1,
		"appversion" : 		{
			"major" : 8,
			"minor" : 5,
			"revision" : 2,
			"architecture" : "x64",
			"modernui" : 1
		}
,
		"classnamespace" : "box",
		"rect" : [ 1145.0, 834.0, 353.0, 262.0 ],
		"bglocked" : 0,
		"openinpresentation" : 0,
		"default_fontsize" : 12.0,
		"default_fontface" : 0,
		"default_fontname" : "Arial",
		"gridonopen" : 1,
		"gridsize" : [ 15.0, 15.0 ],
		"gridsnaponopen" : 1,
		"objectsnaponopen" : 1,
		"statusbarvisible" : 2,
		"toolbarvisible" : 1,
		"lefttoolbarpinned" : 0,
		"toptoolbarpinned" : 0,
		"righttoolbarpinned" : 0,
		"bottomtoolbarpinned" : 0,
		"toolbars_unpinned_last_save" : 0,
		"tallnewobj" : 0,
		"boxanimatetime" : 200,
		"enablehscroll" : 1,
		"enablevscroll" : 1,
		"devicewidth" : 0.0,
		"description" : "",
		"digest" : "",
		"tags" : "",
		"style" : "",
		"subpatcher_template" : "",
		"assistshowspatchername" : 0,
		"boxes" : [ 			{
				"box" : 				{
					"comment" : "",
					"id" : "obj-5",
					"index" : 0,
					"maxclass" : "outlet",
					"numinlets" : 1,
					"numoutlets" : 0,
					"patching_rect" : [ 170.0, 214.0, 30.0, 30.0 ]
				}

			}
, 			{
				"box" : 				{
					"comment" : "",
					"id" : "obj-1",
					"index" : 0,
					"maxclass" : "inlet",
					"numinlets" : 0,
					"numoutlets" : 1,
					"outlettype" : [ "" ],
					"patching_rect" : [ 170.0, 2.0, 30.0, 30.0 ]
				}

			}
, 			{
				"box" : 				{
					"id" : "obj-26",
					"maxclass" : "comment",
					"numinlets" : 1,
					"numoutlets" : 0,
					"patching_rect" : [ 15.0, 156.0, 153.0, 20.0 ],
					"text" : "filter out repeats"
				}

			}
, 			{
				"box" : 				{
					"id" : "obj-25",
					"maxclass" : "comment",
					"numinlets" : 1,
					"numoutlets" : 0,
					"patching_rect" : [ 15.0, 125.0, 150.0, 20.0 ],
					"text" : "convert to int"
				}

			}
, 			{
				"box" : 				{
					"id" : "obj-24",
					"maxclass" : "comment",
					"numinlets" : 1,
					"numoutlets" : 0,
					"patching_rect" : [ 15.0, 95.0, 150.0, 20.0 ],
					"text" : "scale to midi"
				}

			}
, 			{
				"box" : 				{
					"id" : "obj-23",
					"maxclass" : "comment",
					"numinlets" : 1,
					"numoutlets" : 0,
					"patching_rect" : [ 15.0, 58.0, 150.0, 20.0 ],
					"text" : "capture audio at high rate"
				}

			}
, 			{
				"box" : 				{
					"id" : "obj-11",
					"maxclass" : "newobj",
					"numinlets" : 2,
					"numoutlets" : 1,
					"outlettype" : [ "int" ],
					"patching_rect" : [ 170.0, 125.0, 29.5, 22.0 ],
					"text" : "int"
				}

			}
, 			{
				"box" : 				{
					"id" : "obj-6",
					"maxclass" : "newobj",
					"numinlets" : 6,
					"numoutlets" : 1,
					"outlettype" : [ "" ],
					"patching_rect" : [ 170.0, 95.0, 94.0, 22.0 ],
					"text" : "scale -1. 1. 0 #2"
				}

			}
, 			{
				"box" : 				{
					"id" : "obj-3",
					"maxclass" : "newobj",
					"numinlets" : 2,
					"numoutlets" : 2,
					"outlettype" : [ "", "" ],
					"patching_rect" : [ 170.0, 156.0, 60.0, 22.0 ],
					"text" : "zl.change"
				}

			}
, 			{
				"box" : 				{
					"id" : "obj-2",
					"maxclass" : "newobj",
					"numinlets" : 2,
					"numoutlets" : 1,
					"outlettype" : [ "float" ],
					"patching_rect" : [ 170.0, 58.0, 81.0, 22.0 ],
					"text" : "snapshot~ #1"
				}

			}
 ],
		"lines" : [ 			{
				"patchline" : 				{
					"destination" : [ "obj-2", 0 ],
					"source" : [ "obj-1", 0 ]
				}

			}
, 			{
				"patchline" : 				{
					"destination" : [ "obj-3", 0 ],
					"source" : [ "obj-11", 0 ]
				}

			}
, 			{
				"patchline" : 				{
					"destination" : [ "obj-6", 0 ],
					"source" : [ "obj-2", 0 ]
				}

			}
, 			{
				"patchline" : 				{
					"destination" : [ "obj-5", 0 ],
					"source" : [ "obj-3", 0 ]
				}

			}
, 			{
				"patchline" : 				{
					"destination" : [ "obj-11", 0 ],
					"source" : [ "obj-6", 0 ]
				}

			}
 ],
		"dependency_cache" : [  ],
		"autosave" : 0
	}

}
